<?xml version="1.0" encoding="UTF-8"?>
<!DOCTYPE svg PUBLIC "-//W3C//DTD SVG 1.1//EN" "http://www.w3.org/Graphics/SVG/1.1/DTD/svg11.dtd">
<svg version="1.1" xmlns="http://www.w3.org/2000/svg" xmlns:xlink="http://www.w3.org/1999/xlink" x="0" y="0" width="401" height="418" viewBox="0, 0, 401, 418">
  <defs>
    <clipPath id="Clip_1">
      <path d="M-0,418 L400.407,418 L400.407,0.816 L-0,0.816 z"/>
    </clipPath>
  </defs>
  <g id="Layer_1">
    <g clip-path="url(#Clip_1)">
      <path d="M259.221,56.123 C257.502,57.205 256.105,56.754 254.558,56.409 C252.439,55.937 253.057,54.251 253.092,52.821 C253.132,51.173 253.106,49.523 253.11,47.875 C253.12,43.311 255.167,41.208 259.6,40.79 C261.423,40.619 261.482,41.59 261.503,42.8 C261.534,44.613 261.511,46.427 261.511,48.979 C261.724,51.138 262.519,54.047 259.221,56.123 z M397.335,233.56 C391.279,208.77 378.73,187.037 360.763,169.285 C351.347,159.982 345.865,150.023 343.896,137.475 C343.845,137.149 343.764,136.81 343.612,136.521 C342.742,134.868 342.977,133.795 344.395,132.231 C347.119,129.229 345.895,126.339 341.732,125.592 C340.267,125.329 339.427,125.144 338.784,123.649 C331.655,107.07 321.164,92.936 307.217,81.23 C308.446,80.119 309.445,79.248 310.409,78.34 C323.674,65.851 324.756,44.21 312.783,30.967 C308.916,26.689 306.349,27.044 303.954,32.234 C298.071,44.989 288.03,54.127 277.535,63.228 C276.072,60.157 275.217,57.009 272.582,55.431 C270.21,54.009 269.703,52.119 269.504,49.714 C268.554,38.192 268.516,38.159 279.709,33.922 C281.861,33.107 283.856,32.237 283.879,29.635 C283.901,27.046 282.001,26.01 279.8,25.27 C273.504,23.153 267.226,20.983 260.96,18.781 C243.959,12.808 226.968,6.806 209.974,0.816 C209.64,0.816 209.307,0.816 208.974,0.816 C208.794,1.069 208.665,1.473 208.427,1.554 C185.647,9.347 162.856,17.108 140.076,24.899 C137.737,25.7 135.023,26.323 135.026,29.568 C135.029,32.804 137.668,33.375 140.062,34.191 C147.453,36.708 154.837,39.248 162.193,41.869 C163.499,42.334 165.582,42.301 165.682,44.121 C165.9,48.091 166.284,52.213 165.399,55.991 C165.114,57.207 161.058,57.517 158.742,58.286 C154.646,59.644 150.515,60.916 146.49,62.463 C144.358,63.283 142.89,63.036 141.14,61.485 C131.249,52.722 121.851,43.618 116.317,31.256 C114.548,27.305 112.107,26.991 108.959,30.029 C105.038,33.813 102.362,38.449 101.058,43.686 C97.324,58.693 101.401,71.271 113.572,81.227 C99.916,92.664 89.58,106.36 82.551,122.49 C81.365,125.212 80.516,127.499 76.738,125.703 C74.946,124.852 73.124,125.981 72.3,127.92 C71.575,129.627 71.856,131.925 73.395,132.349 C79.615,134.065 76.489,138.004 75.833,141.319 C75.286,144.087 74.384,146.785 73.847,149.554 C69.108,174.013 68.172,198.757 68.539,223.579 C68.584,226.653 68.087,228.036 64.588,227.948 C59.605,227.822 54.581,228.389 49.769,229.757 C39.44,232.695 29.316,236.008 18.348,231.975 C14.788,230.666 13.035,233.341 13.714,237.861 C18.142,267.309 22.63,296.747 26.997,326.203 C27.49,329.528 29.029,331.194 32.318,331.711 C40.37,332.977 48.381,334.509 56.442,335.703 C58.848,336.06 60.128,336.912 61.212,339.211 C71.775,361.592 86.971,369.549 111.235,365.417 C113.326,365.061 114.695,365.347 116.102,366.746 C121.675,372.289 127.816,377.144 134.619,381.064 C137.358,382.643 136.644,383.658 134.874,385.331 C131.07,388.928 128.188,393.249 126.541,398.194 C125.05,402.673 125.368,407.167 128.851,410.786 C132.128,414.19 136.119,414.343 140.403,412.856 C141.59,412.445 142.617,411.426 144.244,413.166 C149.81,419.118 155.03,419.41 161.846,414.943 C162.919,414.239 163.497,412.827 165.598,413.483 C175.795,416.663 183.364,412.68 186.62,402.307 C187.511,399.467 188.419,398.811 191.365,399.112 C203.808,400.386 216.301,400.366 228.749,399.171 C231.637,398.894 232.8,399.478 233.603,402.297 C235.291,408.222 239.038,412.512 245.003,414.593 C248.876,415.944 252.607,413.258 255.913,413.608 C259.4,413.976 262.356,417.693 266.713,417.873 C271.564,418.075 273.794,414.088 277.222,412.588 C280.251,411.261 284.94,415.029 289.016,412.606 C290.003,412.02 291.011,411.313 291.713,410.426 C295.054,406.205 295.024,401.574 293.114,396.782 C291.005,391.491 287.374,387.241 283.241,382.993 C289.945,378.902 296.073,374.626 301.668,369.628 C316.729,356.175 327.314,339.652 335.015,321.137 C335.809,319.229 336.108,317.201 339.392,317.912 C359.219,322.21 374.679,314.712 386.503,299.167 C401.597,279.322 403.011,256.794 397.335,233.56" fill="#6E4100"/>
    </g>
    <path d="M0,74.807 C2.201,70.341 6.864,70.622 10.674,69.586 C14.109,68.652 16.118,67.267 16.544,63.482 C16.93,60.044 18.119,56.704 18.796,53.289 C19.269,50.899 20.751,49.934 22.971,49.844 C25.481,49.741 27.055,50.956 27.604,53.432 C28.395,56.997 29.425,60.531 29.895,64.138 C30.308,67.313 31.825,68.762 34.878,69.283 C37.317,69.699 39.672,70.598 42.073,71.254 C44.383,71.884 46.007,73.131 45.881,75.746 C45.772,78.028 44.505,79.663 42.225,79.775 C31.766,80.29 28.514,86.928 27.918,96.081 C27.73,98.961 26.544,101.169 23.049,101.204 C19.394,101.241 18.851,98.626 18.256,95.976 C18.11,95.328 17.965,94.668 17.935,94.008 C17.559,85.641 13.665,80.527 4.903,80.026 C2.099,79.866 0.945,78.012 0,75.807 C0,75.473 0,75.14 0,74.807" fill="#FFCF00"/>
    <path d="M85.352,138.219 C85.724,138.293 86.057,138.302 86.342,138.424 C91.23,140.519 97.137,141.567 100.715,145.024 C104.505,148.686 100.836,154.688 101.108,159.676 C101.645,169.5 102.472,179.21 105.923,188.579 C111.332,203.266 122.477,210.957 136.955,214.779 C154.469,219.402 172.414,220.331 190.391,220.946 C214.543,221.773 238.664,221.417 262.706,218.764 C273.809,217.538 284.798,215.661 295.017,210.849 C297.243,209.801 298.009,210.033 298.533,212.523 C299.451,216.886 301.654,220.647 305.47,223.111 C307.31,224.299 306.938,225.837 306.969,227.452 C307.148,237.045 310.539,244.715 320.096,248.313 C322.629,249.267 321.738,250.587 321.339,252.17 C318.608,262.977 315.722,273.747 315.937,285.056 C316.133,295.326 319.067,304.433 327.014,311.323 C329.1,313.132 329.058,314.552 328.108,316.855 C310.006,360.777 277.906,386.218 230.212,390.914 C202.348,393.658 175.023,391.935 149.142,379.867 C140.335,375.761 132.385,370.367 124.991,364.084 C122.913,362.318 122.637,361.39 125.334,359.928 C130.417,357.173 134.526,353.218 136.862,347.864 C138.033,345.178 140.354,345.451 142.266,345.113 C160.282,341.924 178.326,338.899 196.363,335.836 C204.397,334.472 212.406,332.92 220.48,331.861 C224.556,331.326 226.146,329.302 226.702,325.511 C229.381,307.242 232.175,288.989 234.944,270.733 C236.466,260.702 237.951,250.664 239.582,240.65 C240.944,232.291 239.614,230.762 231.502,232.621 C224.12,234.312 217.295,234.255 209.723,231.861 C179.764,222.389 153.016,230.046 129.041,249.253 C126.953,250.926 125.818,251.838 123.397,249.659 C111.081,238.571 96.383,232.269 80.293,229.002 C78.242,228.585 76.499,228.647 76.481,225.687 C76.309,197.194 76.851,168.777 84.246,140.983 C84.499,140.029 84.98,139.135 85.352,138.219" fill="#F2ECD9"/>
    <path d="M392.299,260.505 C391.953,275.623 385.886,292.65 369.647,304.369 C359.55,311.656 347.991,314.174 336.249,307.957 C326.358,302.72 322.199,290.85 324.263,276.933 C325.658,267.531 328.114,258.386 330.386,249.19 C331.981,242.732 331.186,241.585 324.684,240.946 C317.115,240.204 312.989,231.156 317.189,224.779 C318.933,222.129 318.527,219.677 315.343,218.273 C307.315,214.734 305.415,212.151 305.957,205.382 C306.508,198.488 310.66,193.422 317.733,191.631 C321.417,190.698 325.244,190.246 329.035,189.848 C331.762,189.561 334.107,189.098 334.147,185.738 C334.183,182.712 332.046,182.417 329.607,181.627 C314.505,176.736 303.368,166.866 295.935,152.996 C293.316,148.109 296.591,143.339 302.212,142.732 C307.58,142.152 312.438,143.992 317.071,146.282 C344.797,159.987 364.786,181.446 379.021,208.575 C386.84,223.476 392.26,239.073 392.299,260.505" fill="#D5B58F"/>
    <path d="M309.317,40.06 C318.48,57.503 309.566,75.624 290.566,79.098 C287.672,79.627 285.168,80.429 285.627,83.973 C286.011,86.934 288.58,88.096 290.837,87.106 C299.628,83.251 304.471,89.237 309.527,94.307 C318.536,103.341 325.526,113.818 330.85,125.432 C332.031,128.007 332.157,129.528 329.065,130.636 C324.851,132.147 320.422,135.965 316.753,135.27 C313.147,134.587 313.2,128.191 311.43,124.401 C301.092,102.268 283.168,91.43 261.32,94.923 C249.309,96.843 238.492,101.962 228.859,109.445 C212.482,122.169 209.241,122.195 192.801,109.69 C181.442,101.049 168.869,95.177 154.483,94.342 C133.37,93.116 115.334,106.089 106.885,127.804 C105.726,130.785 106.156,135.511 103.09,136.328 C100.687,136.968 97.379,134.26 94.488,133.006 C87.754,130.085 87.794,130.094 90.924,123.454 C97.41,109.693 106.425,97.904 118.052,88.071 C120.277,86.19 122.296,85.069 125.213,86.405 C126.379,86.939 127.81,86.914 129.128,87.091 C131.719,87.439 134.384,87.602 135.047,84.249 C135.74,80.736 133.489,79.486 130.469,79.154 C123.867,78.428 118.498,75.428 114.094,70.515 C106.764,62.338 105.638,49.993 111.596,40.137 C119.802,53.733 131.053,64.26 143.522,73.596 C149.025,77.716 150.888,77.041 151.908,70.314 C152.203,68.373 153.58,68.319 154.626,67.995 C159.389,66.52 164.219,65.266 169.027,63.938 C171.25,63.325 173.109,64.037 175.163,65.039 C198.373,76.356 221.585,76.311 244.613,64.516 C246.562,63.517 248.172,63.158 250.215,63.713 C254.383,64.845 258.639,65.676 262.765,66.936 C265.728,67.841 269.569,67.675 268.86,73.083 C268.465,76.103 272.495,77.052 275.784,74.646 C288.085,65.645 299.303,55.542 307.602,42.559 C308.038,41.877 308.517,41.223 309.317,40.06" fill="#F2ECD9"/>
    <path d="M130.852,292.225 C130.853,282.906 130.882,273.586 130.833,264.267 C130.821,261.926 130.986,260.295 134.002,259.72 C165.319,253.747 196.616,247.67 227.881,241.434 C231.161,240.78 231.242,242.003 230.876,244.375 C226.948,269.815 222.939,295.243 219.199,320.71 C218.719,323.977 216.812,324.268 214.536,324.658 C191.295,328.645 168.047,332.583 144.812,336.604 C141.646,337.152 139.355,337.124 138.895,333.02 C138.598,330.373 137.355,327.587 134.986,326.297 C130.644,323.932 130.736,320.247 130.809,316.189 C130.954,308.203 130.852,300.213 130.852,292.225" fill="#B09EB9"/>
    <path d="M122.84,319.07 C103.695,305.968 98.892,305.93 91.48,318.632 C89.33,317.785 88.534,315.629 87.209,314.049 C82.6,308.552 76.934,305.237 69.714,306.96 C62.866,308.593 60.332,314.356 58.886,320.625 C58.551,322.077 58.168,323.568 58.175,325.039 C58.187,327.325 57.34,327.863 55.139,327.442 C49.593,326.381 44.026,325.393 38.43,324.653 C35.509,324.267 34.579,322.59 34.2,320.06 C31.472,301.822 28.718,283.588 25.968,265.354 C24.762,257.361 23.547,249.37 22.25,240.816 C36.425,243.554 50.074,246.163 63.711,248.83 C82.134,252.432 100.546,256.097 118.973,259.679 C121.02,260.077 122.882,260.176 122.872,263.064 C122.808,281.634 122.84,300.205 122.84,319.07" fill="#B09EB9"/>
    <path d="M142.152,187.725 C150.752,190.903 159.496,192.209 168.551,189.868 C180.052,186.895 188.184,179.894 194.716,166.922 C196.647,175.267 201.046,181.724 206.321,187.645 C209.828,191.58 211.11,191.577 214.594,187.514 C219.584,181.695 224.048,175.544 225.951,166.883 C233.486,181.978 244.543,190.617 260.937,190.931 C277.156,191.243 288.91,183.869 296.61,169.329 C300.523,172.759 304.665,175.849 308.109,179.582 C310.829,182.531 308.275,185.799 306.4,187.891 C303.59,191.024 301.194,194.215 299.295,197.993 C297.669,201.228 294.041,202.422 290.876,203.843 C278.985,209.177 266.226,210.68 253.466,211.643 C222.219,214.001 190.955,214.161 159.758,210.751 C153.33,210.049 146.875,209.008 140.619,207.399 C121.127,202.384 112.518,192.303 110.099,172.163 C109.185,164.558 108.68,156.924 110.311,148.754 C113.188,150.011 115.97,151.314 118.823,152.435 C120.297,153.015 120.817,153.919 120.836,155.443 C120.923,162.489 123.741,168.664 127.111,174.649 C129.769,181.718 135.186,185.613 142.152,187.725" fill="#FEFEFE"/>
    <path d="M306.177,132.944 C306.032,133.495 305.992,134.299 305.784,134.344 C302.878,134.984 299.863,134.492 296.922,135.506 C295.481,136.003 295.159,133.848 294.473,132.818 C285.26,118.984 272.275,112.917 255.945,115.187 C239.99,117.405 228.2,128.867 224.612,144.757 C223.928,147.788 223.068,149.118 219.612,148.904 C213.47,148.525 207.272,148.534 201.128,148.9 C197.621,149.108 196.771,147.675 196.081,144.641 C192.773,130.086 183.764,120.377 169.546,116.266 C155.544,112.217 142.838,115.498 132.128,125.543 C127.433,129.947 124.128,135.378 122.396,141.552 C121.648,144.215 120.89,144.569 118.44,143.566 C111.035,140.535 110.997,140.628 113.722,132.917 C121.467,111.005 138.506,99.516 158.882,102.895 C169.029,104.577 178.204,108.893 186.477,115.039 C189.149,117.024 191.722,119.149 194.452,121.049 C206.042,129.115 216.261,129.101 227.532,120.626 C234.86,115.117 242.14,109.686 250.764,106.242 C274.084,96.928 293.754,104.868 304.048,127.936 C304.79,129.599 305.475,131.288 306.177,132.944" fill="#FEFEFE"/>
    <path d="M267.374,29.564 C258.325,32.717 250.229,35.549 242.125,38.359 C232.399,41.731 222.66,45.066 212.94,48.457 C210.863,49.181 208.918,49.505 206.7,48.733 C189.136,42.622 171.537,36.614 153.957,30.553 C153.522,30.403 153.173,30.002 152.265,29.339 C160.367,26.492 168.055,23.763 175.763,21.089 C184.705,17.986 193.767,15.195 202.573,11.749 C207.399,9.86 211.626,10.044 216.424,11.783 C232.956,17.778 249.623,23.404 267.374,29.564" fill="#B09EB9"/>
    <path d="M130.975,162.805 C124.768,147.581 133.41,129.845 149.645,124.487 C165.928,119.114 183.82,128.918 187.906,145.454 C192.712,164.901 177.687,183.614 158.075,182.61 C158.114,179.402 160.823,177.349 161.593,174.456 C162.757,172.961 164.648,172.51 166.052,171.346 C170.076,168.011 170.972,162.473 168.101,158.432 C165.266,154.443 161.151,153.752 156.251,156.458 C155.096,157.096 154.074,157.991 152.727,158.261 C145.702,156.279 139.157,156.562 133.652,162.147 C132.989,162.821 132.041,163.299 130.975,162.805" fill="#FEFEFE"/>
    <path d="M264.894,182.573 C249.376,183.656 236.379,174.526 232.856,160.068 C229.387,145.837 236.405,131.566 249.824,125.565 C263.029,119.66 278.683,124.216 286.772,136.266 C288.605,138.997 289.596,141.448 287.842,144.888 C285.653,149.181 287.143,153.614 288.999,157.809 C289.689,159.369 291.47,160.773 289.868,162.749 C289.396,162.942 288.799,163.075 288.458,162.762 C282.625,157.416 276.082,157.61 269.213,160.233 C268.024,159.961 267.224,159.094 266.325,158.362 C261.31,154.274 257.018,154.426 253.32,158.801 C249.621,163.18 250.212,168.402 254.847,172.349 C255.612,173.001 256.47,173.5 257.369,173.94 C261.812,175.133 264.618,177.754 264.894,182.573" fill="#FEFEFE"/>
    <path d="M101.876,358.634 C83.931,358.618 67.798,343.961 66.182,327.578 C66.117,326.919 66.039,326.224 66.172,325.589 C67.043,321.429 66.972,316.332 71.977,314.904 C76.744,313.543 79.54,317.473 82.144,320.693 C85.199,324.472 87.334,328.812 88.646,333.494 C89.293,335.803 90.356,337.688 92.94,337.47 C95.68,337.24 96.626,335.164 97.012,332.594 C97.529,329.156 98.109,325.693 99.096,322.37 C100.587,317.352 103.622,316.002 108.22,318.638 C113.66,321.756 119.3,324.983 118.34,332.903 C118.138,334.56 119.388,336.046 121.211,336.549 C123.303,337.127 124.711,336.092 125.81,334.433 C126.584,333.265 126.879,331.214 128.85,331.837 C130.61,332.392 131.027,334.245 131.202,335.921 C131.898,342.582 128.743,347.475 123.719,351.302 C116.844,356.539 108.806,358.305 101.876,358.634" fill="#D5B58E"/>
    <path d="M174.449,46.112 C184.563,49.609 194.639,52.972 204.614,56.608 C207.954,57.825 210.967,57.802 214.264,56.603 C222.7,53.537 231.191,50.619 239.706,47.777 C241.362,47.224 243.922,45.133 244.77,47.36 C245.655,49.685 246.185,53.09 243.589,55.261 C241.819,56.74 239.845,58.112 237.745,59.039 C218.564,67.501 199.412,67.396 180.29,58.701 C175.041,56.315 172.409,52.786 174.449,46.112" fill="#B09EB9"/>
    <path d="M161.989,174.694 C162.24,178.102 159.826,180.192 158.075,182.609 C145.977,182.784 134.445,174.356 130.975,162.805 C134.297,160.109 137.199,156.712 141.771,156.049 C145.609,155.493 149.404,155.414 152.811,157.747 C152.906,157.883 153.111,158.052 153.081,158.151 C150.536,166.64 154.288,171.729 161.989,174.694" fill="#FFE0C5"/>
    <path d="M269.008,159.777 C276.791,154.944 283.674,156.426 289.868,162.749 C285.715,174.612 277.179,180.954 264.894,182.573 C262.713,179.57 261.505,175.559 257.009,174.949 C257.482,174.179 258.25,173.92 259.07,173.711 C266.527,171.81 268.359,169.511 268.331,162.073 C268.328,161.224 268.361,160.419 269.008,159.777" fill="#FFE0C5"/>
    <path d="M167.974,395.774 C164.693,395.69 162.815,397.18 161.888,400.429 C160.882,403.959 159.341,407.31 155.712,409.074 C154.325,409.748 152.85,410.376 151.532,409.256 C150.402,408.296 150.661,406.809 150.942,405.504 C151.15,404.54 151.64,403.637 151.861,402.674 C152.338,400.588 152.185,398.73 149.933,397.611 C147.701,396.502 146.108,397.334 144.805,399.13 C143.134,401.431 141.4,403.662 138.689,404.818 C137.503,405.324 136.259,406.199 134.957,405.21 C133.736,404.283 133.62,402.809 134.026,401.561 C135.822,396.042 139.088,391.539 143.869,388.195 C144.715,387.603 145.729,387.394 146.72,387.768 C153.795,390.442 160.858,393.145 167.925,395.838 L167.974,395.774" fill="#FF8F75"/>
    <path d="M252.629,395.29 C259.994,393.307 266.249,391.116 272.337,388.468 C273.597,387.92 274.728,387.45 276.121,388.003 C279.498,389.342 286.219,398.772 286.194,402.305 C286.173,405.165 285.038,406.227 282.099,405.058 C279.319,403.951 277.413,402.02 275.806,399.635 C274.361,397.491 272.562,396.229 269.959,397.752 C267.618,399.122 267.716,401.081 268.575,403.362 C269.358,405.441 270.991,408.105 268.119,409.503 C265.578,410.739 263.408,408.747 261.627,406.936 C260.079,405.361 259.158,403.362 258.621,401.272 C257.883,398.397 256.564,396.135 252.629,395.29" fill="#FF8F75"/>
    <path d="M142.591,249.909 C160.592,238.289 179.73,232.674 201.045,238.472 C181.56,242.285 162.076,246.097 142.591,249.909" fill="#FDFDFC"/>
    <path d="M108.24,249.39 C89.328,245.687 70.729,242.045 52.106,238.398 C61.777,231.656 98.123,238.638 108.24,249.39" fill="#FDFDFC"/>
    <path d="M210.353,162.993 C212.323,163.346 214.139,163.563 215.896,164.01 C218.65,164.711 219.751,166.4 218.59,169.198 C218.273,169.963 218.037,170.777 217.618,171.483 C215.483,175.081 213.268,181.862 210.314,180.862 C205.755,179.319 203.427,173.279 201.957,168.068 C201.31,165.774 202.706,164.63 204.654,164.117 C206.566,163.615 208.539,163.342 210.353,162.993" fill="#FF8F75"/>
    <path d="M167.925,395.838 C170.136,395.375 172.224,396.044 174.249,396.714 C176.073,397.318 179.708,395.982 178.929,399.813 C178.164,403.579 175.676,406.544 171.64,407.029 C169.183,407.324 169.536,405.103 169.853,403.421 C170.387,400.586 170.715,397.803 167.975,395.773 C167.974,395.774 167.925,395.838 167.925,395.838" fill="#FD8E73"/>
    <path d="M249.978,400.16 C248.122,401.922 254.064,406.019 248.192,406.848 C245.536,407.223 240.58,402.05 241.164,399.428 C242.047,395.466 246.064,396.867 248.604,396.387 C251.667,395.809 249.582,398.587 249.978,400.16" fill="#FC8E73"/>
    <path d="M325.458,141.179 C337.554,135.448 334.435,135.208 337.932,146.243 C338.164,146.975 338.14,147.789 338.312,149.19 C333.793,146.374 329.792,143.88 325.458,141.179" fill="#EFE8D4"/>
    <path d="M142.152,187.725 C133.75,187.382 129.097,183.336 127.111,174.649 C131.163,180.114 136.439,184.171 142.152,187.725" fill="#FBDEC5"/>
    <path d="M202.938,157.035 C201.173,158.924 198.473,159.138 196.798,161.553 C196.989,156.87 196.989,156.87 202.938,157.035" fill="#F8F6F4"/>
    <path d="M220.066,158.592 C219.235,158.256 218.403,157.921 217.572,157.585 C219.758,157.06 221.929,155.781 223.856,157.835 C222.8,159.124 221.334,158.364 220.066,158.592" fill="#D7CDC0"/>
    <path d="M220.066,158.592 C221.115,157.265 222.54,157.823 223.856,157.835 C224.066,158.757 224.299,160.494 223.795,160.421 C222.491,160.23 221.301,159.254 220.066,158.592" fill="#F5F2F0"/>
    <path d="M262.26,273.789 C258.72,273.849 255.295,273.252 252.146,271.619 C248.817,269.892 246.698,267.198 246.87,263.289 C247.045,259.293 249.566,256.617 253.137,255.815 C258.846,254.532 264.017,252.374 269.169,249.603 C274.318,246.834 279.341,250.429 279.485,256.225 C279.714,265.442 271.493,273.822 262.26,273.789" fill="#6E4100"/>
    <path d="M161.989,174.694 C151.73,172.856 148.697,167.256 152.811,157.747 C157.915,153.129 162.054,152.12 166.166,154.7 C170.493,157.415 171.767,161.575 170.936,166.367 C170.081,171.297 166.071,173.094 161.989,174.694" fill="#6E4100"/>
    <path d="M269.008,159.777 C271.88,168.25 266.94,175.865 257.009,174.949 C251.313,172.195 249.18,169.034 249.684,163.932 C250.158,159.136 252.817,156.024 257.339,154.561 C262.741,152.814 266.115,155.805 269.008,159.777" fill="#6E4300"/>
    <path d="M254.902,263.834 C260.683,261.627 266.464,262.244 270.387,257.368 C269.511,265.361 264.109,267.692 254.902,263.834" fill="#FAF8F7"/>
  </g>
</svg>
